<svg width="219" height="50" viewBox="0 0 219 50" fill="none" xmlns="http://www.w3.org/2000/svg">
<g filter="url(#filter0_d_45_130)">
<path d="M53.5 21H88" stroke="#071090" stroke-width="4"/>
</g>
<g filter="url(#filter1_d_45_130)">
<path d="M6 1.5C9.27415 8.84687 14.8058 17.6018 21 20.6808M41.5 1.5C35.2497 20.6675 27.7334 24.0278 21 20.6808M21 20.6808V41.5" stroke="#071090" stroke-width="4"/>
</g>
<g filter="url(#filter2_d_45_130)">
<path d="M101.264 13.4545H105.057L109.062 23.2273H109.233L113.239 13.4545H117.031V28H114.048V18.5327H113.928L110.163 27.929H108.132L104.368 18.4972H104.247V28H101.264V13.4545ZM119.508 28V17.0909H122.534V28H119.508ZM121.028 15.6847C120.578 15.6847 120.192 15.5355 119.87 15.2372C119.553 14.9342 119.395 14.572 119.395 14.1506C119.395 13.7339 119.553 13.3764 119.87 13.0781C120.192 12.7751 120.578 12.6236 121.028 12.6236C121.478 12.6236 121.861 12.7751 122.179 13.0781C122.501 13.3764 122.662 13.7339 122.662 14.1506C122.662 14.572 122.501 14.9342 122.179 15.2372C121.861 15.5355 121.478 15.6847 121.028 15.6847ZM127.983 21.6932V28H124.957V17.0909H127.841V19.0156H127.969C128.21 18.3812 128.615 17.8793 129.183 17.5099C129.751 17.1359 130.44 16.9489 131.25 16.9489C132.008 16.9489 132.668 17.1146 133.232 17.446C133.795 17.7775 134.233 18.2509 134.545 18.8665C134.858 19.4773 135.014 20.2064 135.014 21.054V28H131.989V21.5938C131.993 20.9261 131.823 20.4053 131.477 20.0312C131.132 19.6525 130.656 19.4631 130.05 19.4631C129.643 19.4631 129.283 19.5507 128.97 19.7259C128.662 19.901 128.421 20.1567 128.246 20.4929C128.075 20.8243 127.988 21.2244 127.983 21.6932ZM137.399 28V17.0909H140.424V28H137.399ZM138.919 15.6847C138.469 15.6847 138.083 15.5355 137.761 15.2372C137.444 14.9342 137.285 14.572 137.285 14.1506C137.285 13.7339 137.444 13.3764 137.761 13.0781C138.083 12.7751 138.469 12.6236 138.919 12.6236C139.368 12.6236 139.752 12.7751 140.069 13.0781C140.391 13.3764 140.552 13.7339 140.552 14.1506C140.552 14.572 140.391 14.9342 140.069 15.2372C139.752 15.5355 139.368 15.6847 138.919 15.6847ZM147.534 13.4545H151.326L155.332 23.2273H155.502L159.508 13.4545H163.301V28H160.318V18.5327H160.197L156.433 27.929H154.402L150.637 18.4972H150.517V28H147.534V13.4545ZM168.888 28.206C168.192 28.206 167.572 28.0852 167.028 27.8438C166.483 27.5975 166.052 27.2353 165.735 26.7571C165.423 26.2741 165.266 25.6728 165.266 24.9531C165.266 24.3471 165.378 23.8381 165.6 23.4261C165.823 23.0142 166.126 22.6828 166.509 22.4318C166.893 22.1809 167.328 21.9915 167.816 21.8636C168.308 21.7358 168.825 21.6458 169.364 21.5938C169.999 21.5275 170.51 21.4659 170.898 21.4091C171.287 21.3475 171.568 21.2576 171.744 21.1392C171.919 21.0208 172.006 20.8456 172.006 20.6136V20.571C172.006 20.1212 171.864 19.7732 171.58 19.527C171.301 19.2808 170.903 19.1577 170.387 19.1577C169.843 19.1577 169.409 19.2784 169.087 19.5199C168.765 19.7566 168.552 20.0549 168.448 20.4148L165.65 20.1875C165.792 19.5246 166.071 18.9517 166.488 18.4688C166.905 17.9811 167.442 17.607 168.1 17.3466C168.763 17.0814 169.53 16.9489 170.401 16.9489C171.007 16.9489 171.587 17.0199 172.141 17.1619C172.7 17.304 173.195 17.5241 173.626 17.8224C174.061 18.1207 174.405 18.5043 174.656 18.973C174.906 19.437 175.032 19.9934 175.032 20.642V28H172.163V26.4872H172.077C171.902 26.8281 171.668 27.1288 171.374 27.3892C171.081 27.6449 170.728 27.8461 170.316 27.9929C169.904 28.1349 169.428 28.206 168.888 28.206ZM169.755 26.1179C170.2 26.1179 170.593 26.0303 170.934 25.8551C171.275 25.6752 171.542 25.4337 171.737 25.1307C171.931 24.8277 172.028 24.4844 172.028 24.1009V22.9432C171.933 23.0047 171.803 23.0616 171.637 23.1136C171.476 23.161 171.294 23.206 171.09 23.2486C170.887 23.2865 170.683 23.322 170.479 23.3551C170.276 23.3835 170.091 23.4096 169.925 23.4332C169.57 23.4853 169.26 23.5682 168.995 23.6818C168.73 23.7955 168.524 23.9493 168.377 24.1435C168.23 24.3329 168.157 24.5696 168.157 24.8537C168.157 25.2656 168.306 25.5805 168.604 25.7983C168.907 26.0114 169.291 26.1179 169.755 26.1179ZM177.379 28V17.0909H180.312V18.9943H180.426C180.625 18.3172 180.959 17.8059 181.428 17.4602C181.896 17.1098 182.436 16.9347 183.047 16.9347C183.198 16.9347 183.362 16.9441 183.537 16.9631C183.712 16.982 183.866 17.008 183.999 17.0412V19.7259C183.857 19.6832 183.66 19.6454 183.409 19.6122C183.158 19.5791 182.929 19.5625 182.72 19.5625C182.275 19.5625 181.877 19.6596 181.527 19.8537C181.181 20.0431 180.907 20.3082 180.703 20.6491C180.504 20.9901 180.405 21.383 180.405 21.8281V28H177.379ZM188.304 24.8608L188.311 21.2315H188.752L192.246 17.0909H195.719L191.025 22.5739H190.307L188.304 24.8608ZM185.563 28V13.4545H188.588V28H185.563ZM192.381 28L189.171 23.2486L191.188 21.1108L195.925 28H192.381ZM201.726 28.2131C200.604 28.2131 199.638 27.9858 198.828 27.5312C198.023 27.072 197.403 26.4233 196.967 25.5852C196.532 24.7424 196.314 23.7457 196.314 22.5952C196.314 21.473 196.532 20.4882 196.967 19.6406C197.403 18.7931 198.016 18.1326 198.807 17.6591C199.602 17.1856 200.535 16.9489 201.605 16.9489C202.325 16.9489 202.995 17.0649 203.615 17.2969C204.24 17.5241 204.785 17.8674 205.249 18.3267C205.717 18.786 206.082 19.3636 206.342 20.0597C206.603 20.7509 206.733 21.5606 206.733 22.4886V23.3196H197.521V21.4446H203.885C203.885 21.009 203.79 20.6231 203.601 20.2869C203.411 19.9508 203.149 19.688 202.812 19.4986C202.481 19.3045 202.095 19.2074 201.655 19.2074C201.196 19.2074 200.788 19.3139 200.433 19.527C200.083 19.7353 199.808 20.017 199.609 20.3722C199.411 20.7225 199.309 21.1132 199.304 21.544V23.3267C199.304 23.8665 199.403 24.3329 199.602 24.7259C199.806 25.1188 200.092 25.4219 200.462 25.6349C200.831 25.848 201.269 25.9545 201.776 25.9545C202.112 25.9545 202.42 25.9072 202.699 25.8125C202.978 25.7178 203.217 25.5758 203.416 25.3864C203.615 25.197 203.767 24.965 203.871 24.6903L206.669 24.875C206.527 25.5473 206.236 26.1345 205.795 26.6364C205.36 27.1335 204.796 27.5218 204.105 27.8011C203.419 28.0758 202.625 28.2131 201.726 28.2131ZM214.51 17.0909V19.3636H207.94V17.0909H214.51ZM209.432 14.4773H212.457V24.6477C212.457 24.9271 212.5 25.1449 212.585 25.3011C212.67 25.4527 212.789 25.5592 212.94 25.6207C213.097 25.6823 213.277 25.7131 213.48 25.7131C213.622 25.7131 213.764 25.7012 213.906 25.6776C214.048 25.6491 214.157 25.6278 214.233 25.6136L214.709 27.8651C214.557 27.9124 214.344 27.9669 214.07 28.0284C213.795 28.0947 213.461 28.1349 213.068 28.1491C212.339 28.1776 211.7 28.0805 211.151 27.858C210.606 27.6354 210.182 27.2898 209.879 26.821C209.576 26.3523 209.427 25.7604 209.432 25.0455V14.4773Z" fill="#071090"/>
</g>
<defs>
<filter id="filter0_d_45_130" x="49.5" y="19" width="42.5" height="12" filterUnits="userSpaceOnUse" color-interpolation-filters="sRGB">
<feFlood flood-opacity="0" result="BackgroundImageFix"/>
<feColorMatrix in="SourceAlpha" type="matrix" values="0 0 0 0 0 0 0 0 0 0 0 0 0 0 0 0 0 0 127 0" result="hardAlpha"/>
<feOffset dy="4"/>
<feGaussianBlur stdDeviation="2"/>
<feComposite in2="hardAlpha" operator="out"/>
<feColorMatrix type="matrix" values="0 0 0 0 0 0 0 0 0 0 0 0 0 0 0 0 0 0 0.25 0"/>
<feBlend mode="normal" in2="BackgroundImageFix" result="effect1_dropShadow_45_130"/>
<feBlend mode="normal" in="SourceGraphic" in2="effect1_dropShadow_45_130" result="shape"/>
</filter>
<filter id="filter1_d_45_130" x="0.173187" y="0.685852" width="47.2283" height="48.8141" filterUnits="userSpaceOnUse" color-interpolation-filters="sRGB">
<feFlood flood-opacity="0" result="BackgroundImageFix"/>
<feColorMatrix in="SourceAlpha" type="matrix" values="0 0 0 0 0 0 0 0 0 0 0 0 0 0 0 0 0 0 127 0" result="hardAlpha"/>
<feOffset dy="4"/>
<feGaussianBlur stdDeviation="2"/>
<feComposite in2="hardAlpha" operator="out"/>
<feColorMatrix type="matrix" values="0 0 0 0 0 0 0 0 0 0 0 0 0 0 0 0 0 0 0.25 0"/>
<feBlend mode="normal" in2="BackgroundImageFix" result="effect1_dropShadow_45_130"/>
<feBlend mode="normal" in="SourceGraphic" in2="effect1_dropShadow_45_130" result="shape"/>
</filter>
<filter id="filter2_d_45_130" x="97.2642" y="12.6236" width="121.445" height="23.5895" filterUnits="userSpaceOnUse" color-interpolation-filters="sRGB">
<feFlood flood-opacity="0" result="BackgroundImageFix"/>
<feColorMatrix in="SourceAlpha" type="matrix" values="0 0 0 0 0 0 0 0 0 0 0 0 0 0 0 0 0 0 127 0" result="hardAlpha"/>
<feOffset dy="4"/>
<feGaussianBlur stdDeviation="2"/>
<feComposite in2="hardAlpha" operator="out"/>
<feColorMatrix type="matrix" values="0 0 0 0 0 0 0 0 0 0 0 0 0 0 0 0 0 0 0.25 0"/>
<feBlend mode="normal" in2="BackgroundImageFix" result="effect1_dropShadow_45_130"/>
<feBlend mode="normal" in="SourceGraphic" in2="effect1_dropShadow_45_130" result="shape"/>
</filter>
</defs>
</svg>
